<svg width="35" height="35" viewBox="0 0 35 35" fill="none" xmlns="http://www.w3.org/2000/svg">
<path d="M24.4605 22.618C25.9769 20.7202 26.7983 18.3479 26.7983 15.8808C26.7983 9.87105 21.9016 5 15.8991 5C9.89672 5.03163 5 9.90268 5 15.9124C5 21.9221 9.89672 26.7932 15.8676 26.7932C18.2685 26.7932 20.6379 25.9708 22.5966 24.4526L29.1361 31L31 29.1338L24.4605 22.618ZM15.8676 24.1995C11.3183 24.1995 7.62211 20.4988 7.62211 15.944C7.62211 11.3893 11.3183 7.68856 15.8676 7.68856C20.4168 7.68856 24.113 11.3893 24.113 15.944C24.113 20.4988 20.4168 24.1995 15.8676 24.1995Z" fill="black"/>
</svg>
